<svg xmlns="http://www.w3.org/2000/svg" version="1.1" xmlns:xlink="http://www.w3.org/1999/xlink" xmlns:svgjs="http://svgjs.dev/svgjs" width="1500" height="340" viewBox="0 0 1500 340"><g transform="matrix(1,0,0,1,-0.9090909090909918,-0.7296476363910074)"><svg viewBox="0 0 396 90" data-background-color="#ffffff" preserveAspectRatio="xMidYMid meet" height="340" width="1500" xmlns="http://www.w3.org/2000/svg" xmlns:xlink="http://www.w3.org/1999/xlink"><g id="tight-bounds" transform="matrix(1,0,0,1,0.2400000000000091,0.1931420213976196)"><svg viewBox="0 0 395.52 89.61371595720475" height="89.61371595720475" width="395.52"><g><svg viewBox="0 0 575.3602286016257 130.3604573699901" height="89.61371595720475" width="395.52"><g transform="matrix(1,0,0,1,0,18.016532096720773)"><svg viewBox="0 0 395.52000000000004 94.32739317654854" height="94.32739317654854" width="395.52000000000004"><g id="textblocktransform"><svg viewBox="0 0 395.52000000000004 94.32739317654854" height="94.32739317654854" width="395.52000000000004" id="textblock"><g><svg viewBox="0 0 395.52000000000004 94.32739317654854" height="94.32739317654854" width="395.52000000000004"><g transform="matrix(1,0,0,1,0,0)"><svg width="395.52000000000004" viewBox="1.35 -35.5 150.94 36" height="94.32739317654854" data-palette-color="#000000"><g class="wordmark-text-0" data-fill-palette-color="primary" id="text-0"><path d="M15.4 0.5L15.4 0.5Q12.6 0.5 10.1-0.2 7.6-0.9 5.65-2.33 3.7-3.75 2.55-5.85 1.4-7.95 1.35-10.75L1.35-10.75Q1.35-11.2 1.65-11.53 1.95-11.85 2.4-11.85L2.4-11.85 8.15-11.85Q8.85-11.85 9.2-11.53 9.55-11.2 9.75-10.5L9.75-10.5Q10.05-8.95 10.85-7.93 11.65-6.9 12.88-6.45 14.1-6 15.6-6L15.6-6Q18.45-6 19.95-7.83 21.45-9.65 21.45-13.05L21.45-13.05 21.45-28.3 4.85-28.3Q4.35-28.3 4-28.65 3.65-29 3.65-29.55L3.65-29.55 3.65-33.75Q3.65-34.3 4-34.65 4.35-35 4.85-35L4.85-35 28.4-35Q28.95-35 29.3-34.65 29.65-34.3 29.65-33.75L29.65-33.75 29.65-12.85Q29.65-8.55 27.85-5.58 26.05-2.6 22.85-1.05 19.65 0.5 15.4 0.5ZM48.1 0.5L48.1 0.5Q43.95 0.5 41.15-0.88 38.35-2.25 36.87-4.8 35.4-7.35 35.25-10.75L35.25-10.75Q35.2-11.75 35.2-13.03 35.2-14.3 35.25-15.25L35.25-15.25Q35.4-18.7 36.95-21.23 38.5-23.75 41.3-25.13 44.1-26.5 48.1-26.5L48.1-26.5Q52.05-26.5 54.85-25.13 57.65-23.75 59.2-21.23 60.75-18.7 60.95-15.25L60.95-15.25Q61-14.3 61-13.03 61-11.75 60.95-10.75L60.95-10.75Q60.75-7.35 59.27-4.8 57.8-2.25 55-0.88 52.2 0.5 48.1 0.5ZM48.1-5.05L48.1-5.05Q50.55-5.05 51.77-6.55 53-8.05 53.15-11L53.15-11Q53.2-11.75 53.2-13 53.2-14.25 53.15-15L53.15-15Q53-17.9 51.77-19.43 50.55-20.95 48.1-20.95L48.1-20.95Q45.65-20.95 44.4-19.43 43.15-17.9 43-15L43-15Q42.95-14.25 42.95-13 42.95-11.75 43-11L43-11Q43.15-8.05 44.4-6.55 45.65-5.05 48.1-5.05ZM81.4 0.5L81.4 0.5Q78.55 0.5 76.62-0.48 74.7-1.45 73.5-2.95L73.5-2.95 73.5-1.25Q73.5-0.7 73.15-0.35 72.8 0 72.25 0L72.25 0 67.5 0Q66.95 0 66.6-0.35 66.25-0.7 66.25-1.25L66.25-1.25 66.25-34.25Q66.25-34.8 66.6-35.15 66.95-35.5 67.5-35.5L67.5-35.5 72.65-35.5Q73.2-35.5 73.55-35.15 73.9-34.8 73.9-34.25L73.9-34.25 73.9-23.4Q75.1-24.75 76.95-25.63 78.8-26.5 81.4-26.5L81.4-26.5Q83.95-26.5 85.87-25.63 87.8-24.75 89.15-23.18 90.5-21.6 91.22-19.45 91.95-17.3 92.05-14.7L92.05-14.7Q92.1-13.8 92.1-13.03 92.1-12.25 92.05-11.3L92.05-11.3Q91.95-8.65 91.2-6.48 90.45-4.3 89.12-2.73 87.8-1.15 85.87-0.33 83.95 0.5 81.4 0.5ZM79.1-5.5L79.1-5.5Q81-5.5 82.1-6.33 83.2-7.15 83.67-8.5 84.15-9.85 84.25-11.45L84.25-11.45Q84.35-13 84.25-14.55L84.25-14.55Q84.15-16.15 83.67-17.5 83.2-18.85 82.1-19.68 81-20.5 79.1-20.5L79.1-20.5Q77.35-20.5 76.2-19.7 75.05-18.9 74.5-17.68 73.95-16.45 73.9-15.05L73.9-15.05Q73.85-14.15 73.85-13.2 73.85-12.25 73.9-11.3L73.9-11.3Q73.95-9.8 74.47-8.5 75-7.2 76.12-6.35 77.25-5.5 79.1-5.5ZM108.94 0.5L108.94 0.5Q103.19 0.5 99.82-2.7 96.44-5.9 96.24-12L96.24-12Q96.24-12.4 96.24-13.08 96.24-13.75 96.24-14.1L96.24-14.1Q96.44-18 97.99-20.78 99.54-23.55 102.34-25.03 105.14-26.5 108.89-26.5L108.89-26.5Q113.14-26.5 115.94-24.78 118.74-23.05 120.17-20.08 121.59-17.1 121.59-13.25L121.59-13.25 121.59-12.1Q121.59-11.6 121.24-11.23 120.89-10.85 120.34-10.85L120.34-10.85 104.04-10.85Q104.04-10.85 104.04-10.73 104.04-10.6 104.04-10.5L104.04-10.5Q104.09-8.9 104.64-7.58 105.19-6.25 106.27-5.45 107.34-4.65 108.89-4.65L108.89-4.65Q110.09-4.65 110.89-5.03 111.69-5.4 112.22-5.88 112.74-6.35 112.99-6.7L112.99-6.7Q113.44-7.25 113.72-7.38 113.99-7.5 114.54-7.5L114.54-7.5 119.84-7.5Q120.29-7.5 120.62-7.2 120.94-6.9 120.89-6.45L120.89-6.45Q120.84-5.6 120.07-4.42 119.29-3.25 117.79-2.13 116.29-1 114.07-0.25 111.84 0.5 108.94 0.5ZM104.04-15.6L104.04-15.45 113.79-15.45 113.79-15.6Q113.79-17.35 113.22-18.68 112.64-20 111.54-20.75 110.44-21.5 108.89-21.5L108.89-21.5Q107.34-21.5 106.27-20.75 105.19-20 104.62-18.68 104.04-17.35 104.04-15.6L104.04-15.6ZM133.14 0L127.84 0Q127.34 0 126.97-0.35 126.59-0.7 126.59-1.25L126.59-1.25 126.59-24.75Q126.59-25.3 126.97-25.65 127.34-26 127.84-26L127.84-26 132.74-26Q133.29-26 133.64-25.65 133.99-25.3 133.99-24.75L133.99-24.75 133.99-22.8Q135.29-24.4 137.37-25.45 139.44-26.5 142.34-26.5L142.34-26.5Q145.29-26.5 147.54-25.18 149.79-23.85 151.04-21.33 152.29-18.8 152.29-15.2L152.29-15.2 152.29-1.25Q152.29-0.7 151.94-0.35 151.59 0 151.04 0L151.04 0 145.74 0Q145.19 0 144.84-0.35 144.49-0.7 144.49-1.25L144.49-1.25 144.49-14.9Q144.49-17.55 143.22-19.03 141.94-20.5 139.49-20.5L139.49-20.5Q137.14-20.5 135.77-19.03 134.39-17.55 134.39-14.9L134.39-14.9 134.39-1.25Q134.39-0.7 134.04-0.35 133.69 0 133.14 0L133.14 0Z" fill="#000000" data-fill-palette-color="primary"></path></g></svg></g></svg></g></svg></g></svg></g><g transform="matrix(1,0,0,1,417.7884336715469,0)"><svg viewBox="0 0 157.5717949300788 130.3604573699901" height="130.3604573699901" width="157.5717949300788"><g><svg xmlns="http://www.w3.org/2000/svg" xmlns:xlink="http://www.w3.org/1999/xlink" version="1.1" x="0" y="0" viewBox="6.072 14.657999999999998 87.856 72.68400000000001" enable-background="new 0 0 100 100" xml:space="preserve" height="130.3604573699901" width="157.5717949300788" class="icon-icon-0" data-fill-palette-color="accent" id="icon-0"><path fill="#3b82f6" d="M77.053 18.676c0 2.219-13 4.018-27.053 4.018s-27.053-1.799-27.053-4.018 13-4.018 27.053-4.018S77.053 16.457 77.053 18.676z" data-fill-palette-color="accent"></path><path fill="#3b82f6" d="M75.445 70.236c0 2.22-11.393 4.018-25.445 4.018s-25.446-1.798-25.446-4.018l-1.607-49.753c0 2.22 13 4.018 27.053 4.018s27.053-1.798 27.053-4.018L75.445 70.236z" data-fill-palette-color="accent"></path><g fill="#3b82f6" data-fill-palette-color="accent"><path fill="#3b82f6" d="M75.445 72.753v3.646c0 2.219-11.393 4.018-25.445 4.018s-25.446-1.799-25.446-4.018v-3.646C13.369 74.01 6.072 76.074 6.072 78.406c0 3.832 19.667 8.936 43.928 8.936 24.261 0 43.928-5.104 43.928-8.936C93.928 76.074 86.632 74.01 75.445 72.753z" data-fill-palette-color="accent"></path></g></svg></g></svg></g></svg></g><defs></defs></svg><rect width="395.52" height="89.61371595720475" fill="none" stroke="none" visibility="hidden"></rect></g></svg></g></svg>